<?xml version="1.0" encoding="utf-8"?>
<?xml-stylesheet type="text/xsl" href="rss1.xsl"?>
<rss version="2.0" xmlns:atom="http://www.w3.org/2005/Atom" xmlns:content="http://purl.org/rss/1.0/modules/content/" xmlns:dc="http://purl.org/dc/elements/1.1/" xmlns:media="http://search.yahoo.com/mrss/">
<channel>
 <title>Getty</title>
 <link>http://www.gettyimg.com/</link>
 <atom:link href="http://www.gettyimg.com/" rel="self" type="application/rss+xml" />

 
                <item>
                <title><![CDATA[【Albums (lossless)】FLAC - High School Musical - Hits Remixed (Walmart Exclusive)]]></title>
                <link><![CDATA[https://sharemania.us/threads/high-school-musical-hits-remixed-walmart-exclusive.229893/]]></link>
                <description><![CDATA[<article>
<blockquote class="messageText SelectQuoteContainer ugc baseHtml">
<img src="https://i.discogs.com/yFwjH-mQFkMuHU_2CDV35ijMFbWwRfeZ60L_G5T4nKw/rs:fit/g:sm/q:90/h:600/w:600/czM6Ly9kaXNjb2dz/LWRhdGFiYXNlLWlt/YWdlcy9SLTEyNjQ2/MjYtMTIwNDgwNzQ5/MC5qcGVn.jpeg" class="bbCodeImage LbImage" alt="[​IMG]" data-url="https://i.discogs.com/yFwjH-mQFkMuHU_2CDV35ijMFbWwRfeZ60L_G5T4nKw/rs:fit/g:sm/q:90/h:600/w:600/czM6Ly9kaXNjb2dz/LWRhdGFiYXNlLWlt/YWdlcy9SLTEyNjQ2/MjYtMTIwNDgwNzQ5/MC5qcGVn.jpeg" style=""><br>
<b>Genre: </b>Pop, Vocal.<br>
<b>Year:</b> 2007<br>
<b>Label:</b> Walt Disney Records<br>
<ol>
<li>Bet on It" (Remix)</li>
<li>"Fabulous" (Remix)</li>
<li>"Breaking Free" (Remix)</li>
<li>"Bop to the Top" (Remix)</li>
<li>"I Don't Dance" (Remix)</li>
<li>"I Can't Take My Eyes Off of You" (Remix)</li>
<li>"Humuhumunukunukuapua'a" (Remix)</li>
<li>"We're All in This Together" (Remix)</li>
</ol><i><a href="https://dbree.org/v/65207f" target="_blank" class="externalLink" rel="nofollow">
<div class="bbCodeBlock bbCodeVfcHH HiddenContent">
<div class="attribution type">Hidden Content:</div>
<blockquote>You must reply before you can see the hidden data contained here.</blockquote>
</div></a></i>
<div class="messageTextEndMarker">&nbsp;</div>
</blockquote>
</article>]]></description>
                <author><![CDATA[HeyitsmeDanii]]></author>
                </item>

                
                <item>
                <title><![CDATA[【MASTER &amp; MASTER RIP】MASTER - Enrique Iglesias &amp; Maria Becerra – ASI ES LA VIDA (MasterRip Clean AVC 2160p) – 2023]]></title>
                <link><![CDATA[https://sharemania.us/threads/enrique-iglesias-maria-becerra-%E2%80%93-asi-es-la-vida-masterrip-clean-avc-2160p-%E2%80%93-2023.229891/]]></link>
                <description><![CDATA[<article>
<blockquote class="messageText SelectQuoteContainer ugc baseHtml">
<img src="https://i.imgur.com/xZdmS2L.jpg" class="bbCodeImage LbImage" alt="[​IMG]" data-url="https://i.imgur.com/xZdmS2L.jpg" style=""> <br>
<div style="text-align: center">​</div>
<div class="ToggleTriggerAnchor bbCodeSpoilerContainer">
<button type="button" class="button bbCodeSpoilerButton ToggleTrigger Tooltip JsOnly" data-target="> .SpoilerTarget"><span>Spoiler: <span class="SpoilerTitle">MediaInfo</span></span></button>
<div class="SpoilerTarget bbCodeSpoilerText"><span style="font-family: 'Times New Roman'"><span style="font-size: 15px">General<br>
Complete name : C:\Users\user\Desktop\Enrique Iglesias &amp; Maria Becerra – ASI ES LA VIDA (MasterRip Clean AVC 2160p) – 2023.mp4<br>
Format : MPEG-4<br>
Format profile : Base Media / Version 2<br>
Codec ID : mp42 (mp42/mp41)<br>
File size : 1.07 GiB<br>
Duration : 3 min 0 s<br>
Overall bit rate mode : Variable<br>
Overall bit rate : 51.1 Mb/s<br>
Encoded date : UTC 2023-10-06 21:23:53<br>
Tagged date : UTC 2023-10-06 21:24:07<br>
TIM : 00:00:00:00<br>
TSC : 24000<br>
TSZ : 1001<br>
<br>
Video<br>
ID : 1<br>
Format : AVC<br>
Format/Info : Advanced Video Codec<br>
Format profile : High@L5.1<br>
Format settings : CABAC / 1 Ref Frames<br>
Format settings, CABAC : Yes<br>
Format settings, Reference frames : 1 frame<br>
Format settings, GOP : M=1, N=30<br>
Codec ID : avc1<br>
Codec ID/Info : Advanced Video Coding<br>
Duration : 3 min 0 s<br>
Bit rate : 50.8 Mb/s<br>
Width : 3 840 pixels<br>
Height : 2 160 pixels<br>
Display aspect ratio : 16:9<br>
Frame rate mode : Constant<br>
Frame rate : 23.976 (24000/1001) FPS<br>
Color space : YUV<br>
Chroma subsampling : 4:2:0<br>
Bit depth : 8 bits<br>
Scan type : Progressive<br>
Bits/(Pixel*Frame) : 0.255<br>
Stream size : 1.07 GiB (99%)<br>
Language : English<br>
Encoded date : UTC 2023-10-06 21:23:53<br>
Tagged date : UTC 2023-10-06 21:23:53<br>
Codec configuration box : avcC<br>
<br>
Audio<br>
ID : 2<br>
Format : AAC LC<br>
Format/Info : Advanced Audio Codec Low Complexity<br>
Codec ID : mp4a-40-2<br>
Duration : 3 min 0 s<br>
Source duration : 3 min 0 s<br>
Bit rate mode : Variable<br>
Bit rate : 317 kb/s<br>
Maximum bit rate : 410 kb/s<br>
Channel(s) : 2 channels<br>
Channel layout : L R<br>
Sampling rate : 48.0 kHz<br>
Frame rate : 46.875 FPS (1024 SPF)<br>
Compression mode : Lossy<br>
Stream size : 6.82 MiB (1%)<br>
Source stream size : 6.82 MiB (1%)<br>
Language : English<br>
Encoded date : UTC 2023-10-06 21:23:53<br>
Tagged date : UTC 2023-10-06 21:23:53<br>
<br>
<br>
</span></span></div>
</div><br>
<div style="text-align: center"><span style="font-family: 'Times New Roman'"><span style="font-size: 15px"><br>
<div class="bbCodeBlock bbCodeVfcHH HiddenContent">
<div class="attribution type">Hidden Content:</div>
<blockquote>You must either reply or click 'Like' to see the hidden information contained here.</blockquote>
</div></span></span>​</div>
<div class="messageTextEndMarker">&nbsp;</div>
</blockquote>
</article>]]></description>
                <author><![CDATA[mariellisaa]]></author>
                </item>

                
                <item>
                <title><![CDATA[【Requests】[REQ VID] - Enrique Iglesias feat Maria Becerra "Asi es la vida" y Maria becerra feat Pablo Alboran "Amigos" from TIDAL please]]></title>
                <link><![CDATA[https://sharemania.us/threads/enrique-iglesias-feat-maria-becerra-asi-es-la-vida-y-maria-becerra-feat-pablo-alboran-amigos-from-tidal-please.229892/]]></link>
                <description><![CDATA[<article>
<blockquote class="messageText SelectQuoteContainer ugc baseHtml">
txssssssssssssssssssssssssssssssssssssssssssssss
<div class="messageTextEndMarker">&nbsp;</div>
</blockquote>
</article>]]></description>
                <author><![CDATA[mat2103]]></author>
                </item>

                </channel></rss>